<svg xmlns="http://www.w3.org/2000/svg" version="1.1" xmlns:xlink="http://www.w3.org/1999/xlink" xmlns:svgjs="http://svgjs.dev/svgjs" width="35" height="35" viewBox="0 0 2000 2000"><g transform="matrix(1,0,0,1,-0.28443113772425477,-0.28443113772459583)"><svg viewBox="0 0 334 334" data-background-color="#ffffff" preserveAspectRatio="xMidYMid meet" height="2000" width="2000" xmlns="http://www.w3.org/2000/svg" xmlns:xlink="http://www.w3.org/1999/xlink"><g id="tight-bounds" transform="matrix(1,0,0,1,0.04749999999998522,0.04750000000001364)"><svg viewBox="0 0 333.90454557049503 333.90454557049503" height="333.90454557049503" width="333.90454557049503"><g><svg></svg></g><g><svg viewBox="0 0 333.90454557049503 333.90454557049503" height="333.90454557049503" width="333.90454557049503"><g><path d="M0 166.952c0-92.205 74.747-166.952 166.952-166.952 92.205 0 166.952 74.747 166.953 166.952 0 92.205-74.747 166.952-166.953 166.953-92.205 0-166.952-74.747-166.952-166.953zM166.952 316.63c82.665 0 149.677-67.013 149.678-149.678 0-82.665-67.013-149.677-149.678-149.677-82.665 0-149.677 67.013-149.677 149.677 0 82.665 67.013 149.677 149.677 149.678z" data-fill-palette-color="tertiary" fill="#233565" stroke="transparent"></path><ellipse rx="160.27418187383762" ry="160.27418187383762" cx="166.95227278524752" cy="166.95227278524752" fill="#233565" stroke="transparent" stroke-width="0" fill-opacity="1" data-fill-palette-color="tertiary"></ellipse></g><g transform="matrix(1,0,0,1,97.63140040746413,71.17305217166896)"><svg viewBox="0 0 138.64174475556678 191.55844122715712" height="191.55844122715712" width="138.64174475556678"><g><svg viewBox="0 0 138.64174475556678 191.55844122715712" height="191.55844122715712" width="138.64174475556678"><g><svg viewBox="0 0 138.64174475556678 191.55844122715712" height="191.55844122715712" width="138.64174475556678"><g><svg viewBox="0 0 138.64174475556678 191.55844122715712" height="191.55844122715712" width="138.64174475556678"><g id="textblocktransform"><svg viewBox="0 0 138.64174475556678 191.55844122715712" height="191.55844122715712" width="138.64174475556678" id="textblock"><g><svg viewBox="0 0 138.64174475556678 191.55844122715712" height="191.55844122715712" width="138.64174475556678"><g transform="matrix(1,0,0,1,0,0)"><svg width="138.64174475556678" viewBox="0.65 -35.4 26.200000000000003 36.199999999999996" height="191.55844122715712" data-palette-color="#ffffff"><path d="M14.2-35.4Q17.95-35.4 20.73-34.33 23.5-33.25 25.85-31.05L25.85-31.05 22.35-27Q20.5-28.5 18.65-29.2 16.8-29.9 14.7-29.9L14.7-29.9Q12.4-29.9 11.03-28.93 9.65-27.95 9.65-26.15L9.65-26.15Q9.65-24.9 10.23-24.1 10.8-23.3 12.25-22.6 13.7-21.9 16.6-21L16.6-21Q21.75-19.35 24.3-16.93 26.85-14.5 26.85-10L26.85-10Q26.85-6.8 25.25-4.38 23.65-1.95 20.6-0.58 17.55 0.8 13.45 0.8L13.45 0.8Q9.35 0.8 6.15-0.5 2.95-1.8 0.65-4.05L0.65-4.05 4.4-8.2Q6.4-6.5 8.55-5.63 10.7-4.75 13.25-4.75L13.25-4.75Q15.95-4.75 17.57-6 19.2-7.25 19.2-9.5L19.2-9.5Q19.2-10.9 18.63-11.83 18.05-12.75 16.65-13.5 15.25-14.25 12.6-15.05L12.6-15.05Q6.95-16.8 4.53-19.25 2.1-21.7 2.1-25.65L2.1-25.65Q2.1-28.55 3.65-30.78 5.2-33 7.95-34.2 10.7-35.4 14.2-35.4L14.2-35.4Z" opacity="1" transform="matrix(1,0,0,1,0,0)" fill="#ffffff" class="wordmark-text-0" data-fill-palette-color="quaternary" id="text-0"></path></svg></g></svg></g></svg></g></svg></g><g></g></svg></g></svg></g></svg></g></svg></g><defs></defs></svg><rect width="333.90454557049503" height="333.90454557049503" fill="none" stroke="none" visibility="hidden"></rect></g></svg></g></svg>